<svg width="1120" height="825" viewBox="0 0 1120 825" fill="none" xmlns="http://www.w3.org/2000/svg">
<path fill-rule="evenodd" clip-rule="evenodd" d="M1108.23 598.382C1094.44 785.664 944.663 925.343 786.299 1026.32C646.799 1115.28 482.212 1135.32 320.407 1100.74C150.142 1064.35 -24.5863 993.733 -100.114 836.895C-176.973 677.294 -134.349 489.453 -48.6162 334.44C32.8844 187.078 173.618 90.5012 336.467 47.511C512.982 0.913302 706.202 -10.104 854.785 95.9525C1015.43 210.62 1122.72 401.576 1108.23 598.382Z" fill="url(#paint0_radial)"/>
<path fill-rule="evenodd" clip-rule="evenodd" d="M374.391 172.504C504.14 161.691 647.439 163.472 735.291 259.648C828.37 361.547 838.689 512.158 807.496 646.648C776.461 780.46 695.198 897.916 572.826 960.123C447.188 1023.99 295.513 1036.43 171.14 970.131C51.7533 906.489 -9.98709 773.832 -28.269 639.692C-44.5454 520.268 3.07107 405.382 81.7311 314.116C156.194 227.719 260.783 181.972 374.391 172.504Z" fill="url(#paint1_radial)"/>
<path fill-rule="evenodd" clip-rule="evenodd" d="M543.749 877.732C438.697 957.828 294.105 951.872 185.383 876.925C75.7657 801.361 16.8909 668.12 54.1788 540.251C92.3856 409.231 212.511 317.916 348.934 316.07C481.78 314.272 593.766 406.829 637.306 532.359C680.509 656.914 648.609 797.783 543.749 877.732Z" fill="url(#paint2_radial)"/>
<path fill-rule="evenodd" clip-rule="evenodd" d="M321.403 446.472C404.716 446.579 476.046 502.938 502.347 581.977C529.26 662.852 509.658 754.815 440.673 804.891C371.754 854.918 278.251 845.005 209.813 794.323C143.387 745.132 113.787 660.212 139.033 581.514C164.576 501.891 237.771 446.366 321.403 446.472Z" fill="#98D1D1"/>
<path fill-rule="evenodd" clip-rule="evenodd" d="M297.481 564.565C324.217 565.732 348.347 578.496 365.629 598.973C383.641 620.314 395.403 647.195 390.432 674.699C385.197 703.667 366.084 728.362 339.852 741.612C313.021 755.165 281.345 756.417 254.197 743.512C226.855 730.516 207.283 705.175 200.851 675.54C194.501 646.278 201.817 615.248 221.464 592.684C240.148 571.227 269.091 563.327 297.481 564.565Z" fill="#93BBB1"/>
<path fill-rule="evenodd" clip-rule="evenodd" d="M285.517 612.873C300.817 613.836 315.785 617.72 326.137 629.03C337.464 641.404 344.491 657.718 341.711 674.265C338.739 691.955 327.755 707.826 311.595 715.603C295.442 723.377 276.633 721.215 260.532 713.333C244.57 705.519 232.174 691.843 227.839 674.603C223.383 656.88 225.464 636.832 237.939 623.48C249.612 610.987 268.456 611.799 285.517 612.873Z" fill="#7A9C93"/>
<path fill-rule="evenodd" clip-rule="evenodd" d="M278.589 636.223C288.332 636.951 295.548 644.785 300.827 653.009C305.367 660.08 306.042 668.407 304.559 676.679C302.956 685.623 300.328 695.027 292.477 699.598C283.999 704.533 273.182 704.578 264.511 699.992C256.176 695.584 252.492 686.379 250.189 677.233C247.796 667.733 246.175 657.394 251.752 649.34C257.717 640.727 268.143 635.442 278.589 636.223Z" fill="#6E857E"/>
<path fill-rule="evenodd" clip-rule="evenodd" d="M277.016 660.114C281.718 660.045 286.533 661.616 289.346 665.385C292.072 669.038 291.846 673.936 290.607 678.324C289.456 682.398 286.882 685.958 283.036 687.724C279.273 689.452 274.954 689.049 271.242 687.215C267.579 685.406 264.938 682.164 263.819 678.234C262.614 673.996 262.537 669.3 265.131 665.739C267.846 662.011 272.406 660.181 277.016 660.114Z" fill="#CA4757"/>
<path fill-rule="evenodd" clip-rule="evenodd" d="M280.067 684.133C278.195 685.924 275.367 685.447 273.04 684.309C270.582 683.106 268.182 681.18 268.467 678.458C268.789 675.367 271.212 672.793 274.288 672.358C277.204 671.946 279.708 674.043 281.006 676.687C282.224 679.17 282.065 682.221 280.067 684.133Z" fill="#C08F77"/>
<defs>
<radialGradient id="paint0_radial" cx="0" cy="0" r="1" gradientUnits="userSpaceOnUse" gradientTransform="translate(485.5 564.5) rotate(-178.896) scale(623.979 624.185)">
<stop stop-color="#B6FFED"/>
<stop offset="1" stop-color="#D8FCF8"/>
</radialGradient>
<radialGradient id="paint1_radial" cx="0" cy="0" r="1" gradientUnits="userSpaceOnUse" gradientTransform="translate(395.945 591.163) rotate(90) scale(423.138 427.395)">
<stop stop-color="#A9FCE7"/>
<stop offset="1" stop-color="#C0E8E1"/>
</radialGradient>
<radialGradient id="paint2_radial" cx="0" cy="0" r="1" gradientUnits="userSpaceOnUse" gradientTransform="translate(353.852 629.02) rotate(-127.269) scale(312.92 301.363)">
<stop stop-color="#A1D5D9"/>
<stop offset="1" stop-color="#A7E3E8"/>
</radialGradient>
</defs>
</svg>
