<svg width="289" height="303" viewBox="0 0 289 303" fill="none" xmlns="http://www.w3.org/2000/svg">
<path fill-rule="evenodd" clip-rule="evenodd" d="M134.125 27.5059C164.109 23.1373 195.86 3.06516 222.072 16.1882C248.295 29.3162 249.996 62.8719 257.814 89.4297C264.121 110.858 268.015 132.582 262.803 154.554C257.771 175.772 242.177 192.25 229.087 210.54C211.736 234.787 203.474 268.708 173.919 278.758C143.892 288.968 110.902 274.553 83.9563 259.89C58.3926 245.979 36.5609 225.341 27.7283 199.205C19.5662 175.054 35.5872 150.412 38.3634 124.982C41.4537 96.6737 23.8749 63.394 44.8899 42.0029C65.8028 20.7156 103.557 31.9595 134.125 27.5059Z" stroke="#D8FCF8" stroke-width="3"/>
</svg>
