<svg width="40" height="40" viewBox="0 0 40 40" fill="none" xmlns="http://www.w3.org/2000/svg">
  <path fill-rule="evenodd" clip-rule="evenodd" d="M8 12C8 9.79086 9.79086 8 12 8H28C30.2091 8 32 9.79086 32 12V28C32 30.2091 30.2091 32 28 32H12C9.79086 32 8 30.2091 8 28V12Z" fill="#303652"/>
  <path d="M19.8192 13.004C21.0672 13.004 22.0692 13.346 22.8252 14.03C23.5932 14.702 23.9772 15.632 23.9772 16.82C23.9772 17.996 23.5992 18.896 22.8432 19.52C22.0872 20.132 21.0852 20.438 19.8372 20.438L19.7652 21.824H17.5512L17.4612 18.764H18.2712C19.3152 18.764 20.1192 18.626 20.6832 18.35C21.2472 18.074 21.5292 17.57 21.5292 16.838C21.5292 16.31 21.3732 15.89 21.0612 15.578C20.7612 15.266 20.3472 15.11 19.8192 15.11C19.2672 15.11 18.8352 15.26 18.5232 15.56C18.2232 15.86 18.0732 16.274 18.0732 16.802H15.6972C15.6852 16.07 15.8412 15.416 16.1652 14.84C16.4892 14.264 16.9632 13.814 17.5872 13.49C18.2232 13.166 18.9672 13.004 19.8192 13.004ZM18.6492 26.126C18.1932 26.126 17.8152 25.988 17.5152 25.712C17.2272 25.424 17.0832 25.07 17.0832 24.65C17.0832 24.23 17.2272 23.882 17.5152 23.606C17.8152 23.318 18.1932 23.174 18.6492 23.174C19.0932 23.174 19.4592 23.318 19.7472 23.606C20.0352 23.882 20.1792 24.23 20.1792 24.65C20.1792 25.07 20.0352 25.424 19.7472 25.712C19.4592 25.988 19.0932 26.126 18.6492 26.126Z" fill="#FAFAFA"/>
</svg>
