<svg width="32" height="32" viewBox="0 0 32 32" fill="none" xmlns="http://www.w3.org/2000/svg">
<g clip-path="url(#clip0)">
<path fill-rule="evenodd" clip-rule="evenodd" d="M27.9682 18.6807C28.7787 15.4985 31.2787 12.3098 30.1864 9.32959C29.0937 6.34823 25.5466 5.77185 22.8139 4.61783C20.6091 3.68671 18.3449 3.01245 15.9493 3.31713C13.636 3.61134 11.7045 5.09993 9.60924 6.2972C6.8317 7.88436 3.1308 8.37796 1.72143 11.4473C0.289532 14.5656 1.44097 18.2918 2.68849 21.3692C3.87203 24.2887 5.8137 26.8845 8.48974 28.143C10.9626 29.306 13.7668 27.8669 16.5019 27.8654C19.5465 27.8636 22.881 30.1489 25.3972 28.1333C27.9013 26.1275 27.142 21.9247 27.9682 18.6807Z" stroke="#303652"/>
<path fill-rule="evenodd" clip-rule="evenodd" d="M23.1365 18.4693C23.5814 16.2461 25.2079 13.9602 24.3296 11.9418C23.4509 9.92256 20.9476 9.64696 18.9918 8.94483C17.4138 8.37832 15.8042 7.99106 14.1401 8.28369C12.5332 8.56626 11.2392 9.65968 9.81945 10.5578C7.9374 11.7483 5.36752 12.2162 4.49935 14.3822C3.6173 16.5828 4.56561 19.1138 5.55625 21.1939C6.49609 23.1673 7.95384 24.8914 9.87399 25.6675C11.6484 26.3848 13.5547 25.2955 15.4679 25.2003C17.5976 25.0944 20.0177 26.5563 21.7005 25.0791C23.3752 23.6092 22.6829 20.7358 23.1365 18.4693Z" stroke="#303652"/>
<path fill-rule="evenodd" clip-rule="evenodd" d="M18.1406 18.1587C18.2595 16.8878 19.0868 15.5169 18.4213 14.4334C17.7555 13.3495 16.2271 13.3323 15.0003 13.046C14.0104 12.815 13.0135 12.6862 12.0295 12.9416C11.0793 13.1882 10.3723 13.8723 9.57644 14.4538C8.52134 15.2246 7.00279 15.6279 6.62481 16.89C6.24079 18.1722 6.98298 19.5393 7.72037 20.6512C8.41994 21.7061 9.41512 22.5927 10.6255 22.9225C11.7439 23.2272 12.8205 22.5119 13.968 22.3535C15.2454 22.1772 16.8034 22.864 17.719 21.9435C18.6303 21.0274 18.0195 19.4544 18.1406 18.1587Z" stroke="#303652"/>
</g>
<defs>
<clipPath id="clip0">
<rect width="31.5429" height="32" fill="white"/>
</clipPath>
</defs>
</svg>
