<svg width="114" height="16" viewBox="0 0 114 16" fill="none" xmlns="http://www.w3.org/2000/svg">
<path d="M8.83193 3.46155C9.7305 3.46155 10.4222 3.76304 10.9069 4.36602C11.4035 4.95718 11.6518 5.84392 11.6518 7.02624V12.6482H11.0133V7.04398C11.0133 5.03403 10.2625 4.02906 8.76099 4.02906C7.98066 4.02906 7.34812 4.30691 6.86337 4.8626C6.37862 5.41829 6.13624 6.1395 6.13624 7.02624V12.6482H5.49779V6.72475C5.49779 5.8853 5.29679 5.22912 4.89481 4.75619C4.50464 4.27144 3.96668 4.02906 3.28094 4.02906C2.50061 4.02906 1.86215 4.32464 1.36558 4.9158C0.880829 5.50696 0.638453 6.2932 0.638453 7.27453V12.6482H0V3.6389H0.638453V5.18182H0.656187C0.916298 4.64978 1.27691 4.23006 1.73801 3.92265C2.21094 3.61525 2.74298 3.46155 3.33414 3.46155C3.98442 3.46155 4.54011 3.6389 5.00121 3.99359C5.46232 4.34829 5.78155 4.83895 5.95889 5.46558C6.20718 4.83895 6.5737 4.34829 7.05845 3.99359C7.55503 3.6389 8.14619 3.46155 8.83193 3.46155Z" fill="#303652"/>
<path d="M17.2413 3.44381C18.2108 3.44381 18.9793 3.72166 19.5468 4.27735C20.1143 4.83304 20.3981 5.67249 20.3981 6.79569V10.5377C20.3981 11.389 20.4572 12.0925 20.5754 12.6482H19.9724C19.8778 12.1516 19.8306 11.5841 19.8306 10.9456H19.8128C19.5054 11.5368 19.0739 11.9979 18.5182 12.3289C17.9743 12.66 17.3063 12.8255 16.5141 12.8255C15.6156 12.8255 14.8944 12.595 14.3505 12.1339C13.8066 11.6609 13.5347 11.0461 13.5347 10.2894C13.5347 9.55641 13.783 8.97116 14.2796 8.5337C14.7761 8.09624 15.6097 7.78884 16.7802 7.61149C17.9152 7.44597 18.9143 7.32773 19.7774 7.25679V6.74249C19.7774 5.82028 19.5468 5.13453 19.0857 4.68525C18.6364 4.23597 18.0216 4.01133 17.2413 4.01133C16.4137 4.01133 15.7693 4.22414 15.3082 4.64978C14.8589 5.07541 14.6106 5.64293 14.5633 6.35232H13.9071C13.9662 5.46558 14.2855 4.7621 14.8648 4.24188C15.4441 3.70983 16.2363 3.44381 17.2413 3.44381ZM19.7774 7.82431C18.8197 7.90707 17.8443 8.0253 16.8511 8.179C15.8816 8.32088 15.1959 8.56326 14.7939 8.90613C14.3919 9.23718 14.1909 9.69237 14.1909 10.2717C14.1909 10.8747 14.4096 11.3594 14.8471 11.726C15.2845 12.0807 15.8757 12.258 16.6206 12.258C17.1053 12.258 17.5428 12.1812 17.9329 12.0275C18.3231 11.8619 18.6482 11.6314 18.9083 11.3358C19.2394 10.9811 19.464 10.6264 19.5823 10.2717C19.7123 9.91701 19.7774 9.41453 19.7774 8.76425V7.82431Z" fill="#303652"/>
<path d="M29.1912 12.6482V10.7151H29.1735C28.937 11.3772 28.5528 11.8974 28.0207 12.2757C27.5005 12.6423 26.8857 12.8255 26.1763 12.8255C25.0176 12.8255 24.0954 12.4058 23.4097 11.5664C22.7357 10.7269 22.3988 9.58597 22.3988 8.14353C22.3988 6.68928 22.7357 5.54243 23.4097 4.70298C24.0954 3.86354 25.0176 3.44381 26.1763 3.44381C26.8857 3.44381 27.5005 3.63298 28.0207 4.01133C28.5528 4.37784 28.937 4.89215 29.1735 5.55425H29.1912V0.0209961H29.8297V12.6482H29.1912ZM26.2295 4.01133C25.2482 4.01133 24.4737 4.38376 23.9062 5.12862C23.3387 5.86166 23.055 6.86663 23.055 8.14353C23.055 9.40862 23.3387 10.4136 23.9062 11.1585C24.4737 11.8915 25.2482 12.258 26.2295 12.258C27.1517 12.258 27.8788 11.8915 28.4109 11.1585C28.9547 10.4136 29.2267 9.40862 29.2267 8.14353C29.2267 6.86663 28.9547 5.86166 28.4109 5.12862C27.8788 4.38376 27.1517 4.01133 26.2295 4.01133Z" fill="#303652"/>
<path d="M35.9076 12.2757C36.6997 12.2757 37.3559 12.0688 37.8761 11.655C38.4082 11.2412 38.7333 10.6855 38.8515 9.98795H39.5255C39.3836 10.8274 38.9934 11.5131 38.355 12.0452C37.7165 12.5772 36.9007 12.8433 35.9076 12.8433C35.1036 12.8433 34.4001 12.6482 33.7971 12.258C33.206 11.856 32.7508 11.2885 32.4315 10.5555C32.1123 9.81061 31.9527 8.94751 31.9527 7.96619C31.9527 7.06762 32.1064 6.28138 32.4138 5.60746C32.733 4.92171 33.1823 4.38967 33.7617 4.01133C34.341 3.63298 35.0208 3.44381 35.8012 3.44381C36.7825 3.44381 37.5983 3.73348 38.2486 4.31282C38.9107 4.89215 39.3304 5.68431 39.5077 6.68928C39.5787 7.04398 39.6141 7.54646 39.6141 8.19674H32.5912C32.603 9.47364 32.9104 10.4727 33.5134 11.1939C34.1164 11.9151 34.9144 12.2757 35.9076 12.2757ZM35.8012 4.01133C34.8435 4.01133 34.0809 4.34238 33.5134 5.00447C32.9459 5.65475 32.6385 6.52967 32.5912 7.62923H38.9934C38.958 6.4942 38.6506 5.60746 38.0712 4.96901C37.4919 4.33055 36.7352 4.01133 35.8012 4.01133Z" fill="#303652"/>
<path d="M46.2263 5.55425C46.4628 4.89215 46.8411 4.37784 47.3613 4.01133C47.8934 3.63298 48.5141 3.44381 49.2235 3.44381C50.3822 3.44381 51.2985 3.86354 51.9724 4.70298C52.6581 5.54243 53.001 6.68928 53.001 8.14353C53.001 9.58597 52.6581 10.7269 51.9724 11.5664C51.2985 12.4058 50.3822 12.8255 49.2235 12.8255C48.5141 12.8255 47.8934 12.6423 47.3613 12.2757C46.8411 11.8974 46.4628 11.3772 46.2263 10.7151H46.2086V12.6482H45.5701V0.0209961H46.2086V5.55425H46.2263ZM49.1526 4.01133C48.2422 4.01133 47.515 4.38376 46.9712 5.12862C46.4391 5.86166 46.1731 6.86663 46.1731 8.14353C46.1731 9.40862 46.4391 10.4136 46.9712 11.1585C47.515 11.8915 48.2422 12.258 49.1526 12.258C50.1339 12.258 50.9083 11.8915 51.4758 11.1585C52.0552 10.4136 52.3448 9.40862 52.3448 8.14353C52.3448 6.86663 52.0552 5.86166 51.4758 5.12862C50.9083 4.38376 50.1339 4.01133 49.1526 4.01133Z" fill="#303652"/>
<path d="M57.6259 12.9142C57.283 13.7536 56.9579 14.3921 56.6505 14.8296C56.3549 15.267 56.0298 15.5685 55.6751 15.734C55.3322 15.9114 54.9007 16.0001 54.3804 16.0001C54.1322 16.0001 53.9075 15.9646 53.7065 15.8936V15.3084C53.9075 15.3793 54.1322 15.4148 54.3804 15.4148C54.8061 15.4148 55.1549 15.3439 55.4268 15.202C55.7106 15.0601 55.9766 14.7941 56.2249 14.4039C56.4732 14.0138 56.751 13.4344 57.0584 12.6659L53.4937 3.6389H54.1854L57.3776 11.8146H57.3954L60.6763 3.6389H61.368L57.6259 12.9142Z" fill="#303652"/>
<g clip-path="url(#clip0)">
<path d="M113.096 13.6262H104.166V14.9854H113.096V13.6262Z" fill="#303652"/>
<path d="M100.059 3.43239C99.5303 3.42494 99.0082 3.55104 98.541 3.79904C98.0913 4.04098 97.7009 4.37993 97.398 4.79138H97.3625V3.64683H95.0234V12.731H97.5236V7.86719C97.5236 7.06856 97.6873 6.4576 98.0148 6.03432C98.1637 5.83187 98.3592 5.66843 98.5848 5.55791C98.8104 5.44739 99.0592 5.39306 99.3103 5.39953C99.5305 5.38809 99.7504 5.42727 99.9532 5.51407C100.156 5.60087 100.336 5.733 100.48 5.90032C100.76 6.23409 100.899 6.73479 100.9 7.40242V12.7313H103.399V7.15209C103.399 5.94793 103.101 5.02694 102.506 4.38912C101.911 3.7513 101.095 3.43239 100.059 3.43239ZM89.0579 5.13126C89.551 5.11947 90.029 5.30255 90.3884 5.64089C90.7514 5.98045 90.9687 6.47811 91.0403 7.13387H87.0753C87.1707 6.46634 87.394 5.96564 87.7451 5.63178C87.9203 5.46603 88.1265 5.3365 88.3517 5.25062C88.577 5.16473 88.8169 5.12417 89.0579 5.13126ZM89.0757 11.2469C88.8064 11.255 88.5387 11.2049 88.2906 11.0999C88.0425 10.995 87.8199 10.8377 87.6381 10.6387C87.263 10.2339 87.0576 9.59017 87.0219 8.70745H93.5407C93.5611 7.92271 93.4648 7.13929 93.255 6.3829C93 5.49758 92.4601 4.72139 91.7192 4.17495C90.9807 3.63216 90.0937 3.36077 89.0582 3.36077C88.2118 3.33898 87.3763 3.55588 86.6471 3.98672C85.9782 4.3933 85.4391 4.9827 85.0934 5.6856C84.7267 6.44292 84.5432 7.27602 84.5577 8.11752C84.5397 8.99958 84.7229 9.87411 85.0934 10.6746C85.4298 11.3906 85.9705 11.9908 86.6471 12.3996C87.3842 12.8262 88.2249 13.0397 89.0759 13.0164C89.79 13.0283 90.4987 12.8912 91.157 12.614C91.7365 12.3708 92.2505 11.994 92.6573 11.5145C93.0329 11.0722 93.2936 10.5439 93.4164 9.97647H90.8612C90.8343 10.1611 90.7697 10.3381 90.6714 10.4966C90.5731 10.655 90.4432 10.7915 90.2898 10.8975C89.9326 11.1406 89.5069 11.2628 89.0752 11.2462L89.0757 11.2469ZM79.0033 5.1314C79.4964 5.11957 79.9744 5.30265 80.3338 5.64103C80.6968 5.98059 80.914 6.47825 80.9855 7.13401H77.021C77.1161 6.46648 77.3393 5.96578 77.6905 5.63192C77.8657 5.46617 78.0719 5.33664 78.2971 5.25076C78.5224 5.16487 78.7623 5.12431 79.0033 5.1314ZM79.0212 11.247C78.7519 11.2552 78.4841 11.2051 78.236 11.1001C77.9879 10.9952 77.7653 10.8378 77.5834 10.6389C77.2084 10.2341 77.003 9.59031 76.9674 8.70759H83.4863C83.5065 7.92285 83.4102 7.13944 83.2006 6.38304C82.9454 5.49773 82.4055 4.72156 81.6646 4.17509C80.9261 3.6323 80.0391 3.3609 79.0035 3.3609C78.1572 3.33911 77.3218 3.55602 76.5927 3.98686C75.9237 4.39344 75.3847 4.98284 75.0389 5.68574C74.6722 6.44305 74.4886 7.27615 74.503 8.11766C74.4852 8.99973 74.6684 9.87426 75.0389 10.6747C75.3754 11.3907 75.916 11.9909 76.5927 12.3997C77.3297 12.8264 78.1705 13.0399 79.0215 13.0165C79.7355 13.0284 80.4442 12.8914 81.1025 12.6141C81.682 12.3708 82.196 11.9941 82.6028 11.5146C82.9784 11.0723 83.2391 10.544 83.3617 9.97661H80.8069C80.7801 10.1613 80.7155 10.3385 80.6172 10.497C80.5188 10.6556 80.3888 10.7921 80.2354 10.898C79.8782 11.1411 79.4526 11.2633 79.021 11.2467L79.0212 11.247ZM74.8775 12.7309L71.0556 7.83117L74.5025 3.64669H71.6808L68.7518 7.31286H68.7163V-0.000976562H66.2158V12.731H68.7163V8.4752H68.7518L71.788 12.7312L74.8775 12.7309Z" fill="#303652"/>
</g>
<defs>
<clipPath id="clip0">
<rect width="46.8804" height="14.9852" fill="white" transform="translate(66.2158)"/>
</clipPath>
</defs>
</svg>
