<svg width="43" height="44" viewBox="0 0 43 44" fill="none" xmlns="http://www.w3.org/2000/svg">
  <path d="M31.3906 40.9323C21.7494 45.0398 9.54534 45.9848 3.15356 37.6623C-3.22285 29.3598 1.05478 17.951 7.27116 9.52735C12.6703 2.21107 21.6611 -1.86688 30.3263 0.841161C38.5938 3.4249 42.7602 12.0094 42.9906 20.6904C43.2189 29.2911 39.287 37.5682 31.3906 40.9323Z" fill="#303652"/>
  <path d="M30 31V29C30 27.9391 29.5786 26.9217 28.8284 26.1716C28.0783 25.4214 27.0609 25 26 25H18C16.9391 25 15.9217 25.4214 15.1716 26.1716C14.4214 26.9217 14 27.9391 14 29V31" stroke="#FAFAFA" stroke-width="2" stroke-linecap="round" stroke-linejoin="round"/>
  <path d="M22 21C24.2091 21 26 19.2091 26 17C26 14.7909 24.2091 13 22 13C19.7909 13 18 14.7909 18 17C18 19.2091 19.7909 21 22 21Z" stroke="#FAFAFA" stroke-width="2" stroke-linecap="round" stroke-linejoin="round"/>
</svg>
