<svg width="24" height="24" viewBox="0 0 24 24" fill="none" xmlns="http://www.w3.org/2000/svg">
  <path fill-rule="evenodd" clip-rule="evenodd" d="M15.5922 17.135C16.0182 17.561 16.7089 17.561 17.135 17.135L21.498 12.772L21.4986 12.7713C21.6032 12.6668 21.6821 12.5462 21.7353 12.4175C21.7887 12.2889 21.8181 12.1479 21.8181 12C21.8181 11.8526 21.7889 11.7121 21.736 11.5839C21.7097 11.5202 21.6772 11.4585 21.6384 11.3997C21.5984 11.3392 21.5518 11.2818 21.4986 11.2286L21.498 11.2279L17.135 6.86493C16.7089 6.4389 16.0182 6.4389 15.5922 6.86493C15.1662 7.29096 15.1662 7.98168 15.5922 8.40771L18.0935 10.909H3.27266C2.67015 10.909 2.18175 11.3975 2.18175 12C2.18175 12.6024 2.67015 13.0909 3.27266 13.0909H18.0935L15.5922 15.5922C15.1662 16.0182 15.1662 16.709 15.5922 17.135Z" fill="#FAFAFA"/>
</svg>
