<svg width="285" height="299" viewBox="0 0 285 299" fill="none" xmlns="http://www.w3.org/2000/svg">
<path fill-rule="evenodd" clip-rule="evenodd" d="M132.125 25.5059C162.109 21.1373 193.86 1.06516 220.072 14.1882C246.295 27.3162 247.996 60.8719 255.814 87.4297C262.121 108.858 266.015 130.582 260.803 152.554C255.771 173.772 240.177 190.25 227.087 208.54C209.736 232.787 201.474 266.708 171.919 276.758C141.892 286.968 108.902 272.553 81.9563 257.89C56.3926 243.979 34.5609 223.341 25.7283 197.205C17.5662 173.054 33.5872 148.412 36.3634 122.982C39.4537 94.6737 21.8749 61.394 42.8899 40.0029C63.8028 18.7156 101.557 29.9595 132.125 25.5059Z" stroke="#D8FCF8" stroke-width="3"/>
<path fill-rule="evenodd" clip-rule="evenodd" d="M131.734 36.9688C159.748 33.3869 189.655 15.1368 213.879 27.863C238.112 40.594 239.171 72.0301 246.04 97.0198C251.582 117.183 254.87 137.582 249.668 158.06C244.645 177.833 229.853 192.993 217.366 209.891C200.814 232.292 192.582 263.901 164.879 272.808C136.734 281.857 106.213 267.806 81.3304 253.627C57.7235 240.174 37.7003 220.488 29.8786 195.876C22.6506 173.133 37.9687 150.34 40.9553 126.584C44.2797 100.141 28.4186 68.6948 48.3402 49.0286C68.1651 29.4578 103.175 40.6203 131.734 36.9688Z" stroke="#D8FCF8" stroke-width="2.77778"/>
<path fill-rule="evenodd" clip-rule="evenodd" d="M131.279 48.1213C157.305 45.256 185.314 28.757 207.572 41.0212C229.838 53.2899 230.329 82.595 236.307 105.992C241.131 124.87 243.861 143.93 238.719 162.92C233.753 181.258 219.804 195.132 207.965 210.665C192.271 231.256 184.146 260.566 158.326 268.397C132.093 276.353 104.019 262.749 81.1727 249.12C59.4982 236.189 41.2432 217.512 34.3763 194.451C28.0306 173.141 42.5867 152.164 45.726 130.082C49.2205 105.503 35.0074 75.9388 53.7822 57.9524C72.4659 40.0532 104.747 51.0423 131.279 48.1213Z" stroke="#D8FCF8" stroke-width="2.55556"/>
<path fill-rule="evenodd" clip-rule="evenodd" d="M130.769 58.9616C154.79 56.7423 180.85 41.9223 201.166 53.66C221.489 65.402 221.487 92.5664 226.632 114.348C230.783 131.922 233.003 149.631 227.971 167.142C223.112 184.052 210.045 196.675 198.897 210.87C184.119 229.688 176.18 256.713 152.27 263.538C127.979 270.471 102.325 257.395 81.4888 244.382C61.7208 232.037 45.1924 214.423 39.2235 192.938C33.7077 173.084 47.4434 153.889 50.678 133.48C54.2786 110.761 41.6427 83.1268 59.2186 66.7737C76.7093 50.5001 106.28 61.224 130.769 58.9616Z" stroke="#D8FCF8" stroke-width="2.33333"/>
<path fill-rule="evenodd" clip-rule="evenodd" d="M130.209 69.4891C152.212 67.845 176.274 54.6306 194.674 65.7779C213.08 76.9295 212.66 101.946 217.029 122.09C220.555 138.344 222.312 154.688 217.44 170.731C212.736 186.223 200.592 197.63 190.177 210.518C176.372 227.602 168.695 252.357 146.723 258.244C124.399 264.225 101.139 251.756 82.2831 239.426C64.3941 227.728 49.549 211.232 44.421 191.347C39.6823 172.972 52.5401 155.523 55.8128 136.781C59.4557 115.919 48.3249 90.2605 64.6512 75.4931C80.8982 60.7974 107.777 71.1652 130.209 69.4891Z" stroke="#D8FCF8" stroke-width="2.11111"/>
<path fill-rule="evenodd" clip-rule="evenodd" d="M129.611 79.7025C149.584 78.5624 171.601 66.879 188.111 77.373C204.627 87.871 203.864 110.733 207.518 129.221C210.465 144.137 211.808 159.108 207.146 173.694C202.645 187.778 191.46 198.006 181.822 209.616C169.045 225.006 161.706 247.51 141.696 252.53C121.367 257.629 100.47 245.847 83.5637 234.264C67.5246 223.275 54.3184 207.95 49.9734 189.687C45.9583 172.811 57.8819 157.072 61.1354 139.992C64.757 120.981 55.0583 97.3408 70.0853 84.1101C85.0394 70.9437 109.249 80.8648 129.611 79.7025Z" stroke="#D8FCF8" stroke-width="1.88889"/>
<path fill-rule="evenodd" clip-rule="evenodd" d="M128.98 89.6014C146.913 88.8939 166.838 78.6656 181.488 88.4441C196.144 98.2262 195.112 118.931 198.109 135.743C200.527 149.308 201.504 162.896 197.101 176.037C192.85 188.727 182.662 197.812 173.84 208.175C162.146 221.913 155.222 242.186 137.198 246.408C118.885 250.698 100.32 239.68 85.3315 228.909C71.1115 218.69 59.4984 204.587 55.8782 187.967C52.5328 172.609 63.4667 158.541 66.6442 143.118C70.1811 125.949 61.8403 104.369 75.5199 92.6251C89.1332 80.9378 110.698 90.3227 128.98 89.6014Z" stroke="#D8FCF8" stroke-width="1.66667"/>
<path fill-rule="evenodd" clip-rule="evenodd" d="M128.327 99.1855C144.212 98.8389 162.003 89.989 174.823 98.9904C187.648 107.995 186.423 126.54 188.823 141.661C190.759 153.861 191.419 166.058 187.324 177.768C183.37 189.076 174.216 197.058 166.251 206.207C155.693 218.335 149.259 236.399 133.241 239.895C116.967 243.447 100.7 233.272 87.5948 223.374C75.1617 213.985 65.0946 201.156 62.1403 186.198C59.4103 172.375 69.3003 159.939 72.345 146.163C75.7342 130.828 68.6762 111.348 80.9615 101.038C93.1873 90.7792 112.134 99.5388 128.327 99.1855Z" stroke="#D8FCF8" stroke-width="1.44444"/>
<path fill-rule="evenodd" clip-rule="evenodd" d="M127.659 108.454C141.488 108.397 157.103 100.847 168.126 109.011C179.153 117.178 177.81 133.564 179.672 146.977C181.175 157.8 181.567 168.6 177.828 178.895C174.218 188.835 166.132 195.753 159.064 203.721C149.694 214.284 143.825 230.162 129.833 233.003C115.617 235.89 101.612 226.634 90.3549 217.673C79.675 209.172 71.1055 197.665 68.7579 184.387C66.5885 172.117 75.3814 161.271 78.237 149.132C81.4156 135.62 75.5642 118.277 86.4099 109.35C97.2029 100.467 113.561 108.513 127.659 108.454Z" stroke="#D8FCF8" stroke-width="1.22222"/>
<path fill-rule="evenodd" clip-rule="evenodd" d="M126.983 117.407C138.752 117.567 152.152 111.239 161.411 118.506C170.673 125.775 169.287 140.004 170.672 151.696C171.79 161.13 171.964 170.528 168.629 179.424C165.409 188.014 158.426 193.906 152.293 200.728C144.162 209.771 138.932 223.49 126.983 225.748C114.843 228.043 103.062 219.781 93.6157 211.818C84.6536 204.263 77.5321 194.127 75.7316 182.544C74.0678 171.841 81.7114 162.543 84.3217 152.031C87.2274 140.329 82.5056 125.158 91.8676 117.56C101.184 109.999 114.985 117.244 126.983 117.407Z" stroke="#D8FCF8"/>
</svg>
