<svg width="414" height="415" viewBox="0 0 414 415" fill="none" xmlns="http://www.w3.org/2000/svg">
  <g opacity="0.5">
    <path fill-rule="evenodd" clip-rule="evenodd" d="M120.91 104.142C153.672 78.9304 182.548 39.5751 223.034 42.4824C264.889 45.488 293.909 82.4207 313.942 118.004C332.212 150.455 332.78 188.305 326.238 225.795C319.399 264.991 309.744 306.969 276.786 330.943C243.218 355.36 198.104 358.269 159.263 347.254C124.132 337.292 104.11 305.724 83.7588 276.204C63.3655 246.622 36.324 216.157 44.0901 180.189C51.8338 144.325 91.1845 127.018 120.91 104.142Z" stroke="#FAFAFA" stroke-width="3"/>
    <path fill-rule="evenodd" clip-rule="evenodd" d="M129.568 116.754C159.276 94.3008 185.591 59.0716 222.043 62.0189C259.728 65.0658 285.591 98.5805 303.367 130.806C319.579 160.196 319.802 194.307 313.622 228.036C307.161 263.3 298.142 301.048 268.267 322.384C237.839 344.115 197.173 346.371 162.264 336.131C130.691 326.87 112.893 298.262 94.784 271.497C76.6373 244.676 52.5078 217.005 59.7791 184.658C67.0293 152.403 102.613 137.126 129.568 116.754Z" stroke="#FAFAFA" stroke-width="2.77778"/>
    <path fill-rule="evenodd" clip-rule="evenodd" d="M138.103 129.183C164.712 109.433 188.397 78.282 220.818 81.1992C254.335 84.215 277.102 114.26 292.682 143.091C306.892 169.386 306.834 199.755 301.081 229.733C295.067 261.075 286.757 294.607 260.008 313.361C232.764 332.462 196.553 334.144 165.56 324.747C137.528 316.248 121.903 290.637 105.986 266.663C90.0355 242.64 68.767 217.812 75.4809 189.073C82.1753 160.417 113.96 147.103 138.103 129.183Z" stroke="#FAFAFA" stroke-width="2.55556"/>
    <path fill-rule="evenodd" clip-rule="evenodd" d="M146.519 141.412C169.984 124.309 190.97 97.1875 219.364 100.004C248.718 102.917 268.452 129.44 281.897 154.842C294.158 178.01 293.886 204.635 288.625 230.871C283.125 258.302 275.597 287.635 252.016 303.863C227.999 320.392 196.25 321.576 169.156 313.09C144.65 305.414 131.142 282.835 117.367 261.689C103.563 240.499 85.1041 218.561 91.1982 193.419C97.2746 168.348 125.229 156.93 146.519 141.412Z" stroke="#FAFAFA" stroke-width="2.33333"/>
    <path fill-rule="evenodd" clip-rule="evenodd" d="M154.819 153.459C175.096 138.947 193.315 115.805 217.685 118.451C242.88 121.187 259.645 144.139 271.015 166.078C281.385 186.086 280.963 208.966 276.259 231.472C271.341 255.003 264.668 280.152 244.298 293.912C223.55 307.926 196.269 308.692 173.054 301.183C152.058 294.392 140.613 274.879 128.929 256.596C117.221 238.276 101.519 219.275 106.931 197.715C112.327 176.217 136.421 166.626 154.819 153.459Z" stroke="#FAFAFA" stroke-width="2.11111"/>
    <path fill-rule="evenodd" clip-rule="evenodd" d="M163.003 165.314C180.05 153.336 195.433 134.123 215.786 136.529C236.827 139.017 250.688 158.347 260.045 176.788C268.578 193.606 268.073 212.74 263.99 231.529C259.722 251.172 253.976 272.156 236.856 283.504C219.42 295.062 196.612 295.487 177.257 289.023C159.752 283.176 150.316 266.765 140.672 251.38C131.008 235.963 118.01 219.945 122.678 201.954C127.333 184.015 147.537 176.183 163.003 165.314Z" stroke="#FAFAFA" stroke-width="1.88889"/>
    <path fill-rule="evenodd" clip-rule="evenodd" d="M171.077 176.977C184.85 167.475 197.331 152.139 213.673 154.235C230.567 156.402 241.587 172.063 248.993 186.972C255.748 200.569 255.224 215.959 251.827 231.043C248.276 246.812 243.529 263.649 229.701 272.643C215.617 281.805 197.284 281.967 181.77 276.614C167.738 271.773 160.256 258.495 152.6 246.042C144.929 233.562 134.582 220.574 138.444 206.137C142.295 191.741 158.58 185.599 171.077 176.977Z" stroke="#FAFAFA" stroke-width="1.66667"/>
    <path fill-rule="evenodd" clip-rule="evenodd" d="M179.04 188.442C189.498 181.358 199.01 169.846 211.349 171.563C224.104 173.337 232.348 185.28 237.866 196.626C242.898 206.973 242.421 218.619 239.775 230.011C237.008 241.921 233.332 254.63 222.835 261.33C212.144 268.154 198.289 268.131 186.594 263.956C176.016 260.18 170.432 250.069 164.713 240.581C158.981 231.073 151.231 221.158 154.226 210.259C157.212 199.391 169.551 194.87 179.04 188.442Z" stroke="#FAFAFA" stroke-width="1.44444"/>
    <path fill-rule="evenodd" clip-rule="evenodd" d="M186.895 199.72C193.998 194.994 200.476 187.254 208.819 188.521C217.443 189.83 222.979 198.009 226.671 205.759C230.038 212.827 229.673 220.733 227.841 228.448C225.925 236.514 223.392 245.114 216.265 249.578C209.005 254.125 199.631 253.996 191.732 251.065C184.588 248.414 180.847 241.501 177.011 235.011C173.168 228.507 167.96 221.71 170.026 214.333C172.086 206.977 180.451 204.007 186.895 199.72Z" stroke="#FAFAFA" stroke-width="1.22222"/>
    <path fill-rule="evenodd" clip-rule="evenodd" d="M194.65 210.792C198.356 208.366 201.736 204.344 206.092 205.091C210.595 205.864 213.487 210.232 215.418 214.356C217.178 218.118 216.99 222.285 216.036 226.339C215.039 230.576 213.719 235.09 209.999 237.378C206.211 239.708 201.317 239.551 197.192 237.93C193.462 236.463 191.506 232.78 189.501 229.319C187.493 225.851 184.771 222.215 185.848 218.342C186.921 214.48 191.287 212.993 194.65 210.792Z" stroke="#FAFAFA"/>
  </g>
</svg>
