<svg width="31" height="28" viewBox="0 0 31 28" fill="none" xmlns="http://www.w3.org/2000/svg">
<path fill-rule="evenodd" clip-rule="evenodd" d="M27.9682 16.6807C28.7787 13.4985 31.2787 10.3098 30.1864 7.32959C29.0937 4.34823 25.5466 3.77185 22.8139 2.61783C20.6091 1.68671 18.3449 1.01245 15.9493 1.31713C13.636 1.61134 11.7045 3.09993 9.60924 4.2972C6.8317 5.88436 3.1308 6.37796 1.72143 9.44727C0.289532 12.5656 1.44097 16.2918 2.68849 19.3692C3.87203 22.2887 5.8137 24.8845 8.48974 26.143C10.9626 27.306 13.7668 25.8669 16.5019 25.8654C19.5465 25.8636 22.881 28.1489 25.3972 26.1333C27.9013 24.1275 27.142 19.9247 27.9682 16.6807Z" stroke="#303652"/>
</svg>
